<svg height='100px' width='100px'  fill="#9C4E83" xmlns:x="http://ns.adobe.com/Extensibility/1.0/" xmlns:i="http://ns.adobe.com/AdobeIllustrator/10.0/" xmlns:graph="http://ns.adobe.com/Graphs/1.0/" xmlns="http://www.w3.org/2000/svg" xmlns:xlink="http://www.w3.org/1999/xlink" version="1.1" x="0px" y="0px" viewBox="0 0 100 100" style="enable-background:new 0 0 100 100;" xml:space="preserve"><g><g i:extraneous="self"><g><path d="M56.87,84.29c0.25-0.14,0.24-0.34,0.27-0.52c0.35-1.97,0.68-3.95,1.07-5.91c0.21-1.06-0.03-2.05-0.38-3.01     c-0.2-0.56-0.74-0.91-1.29-1.17c-0.99-0.45-2.01-0.8-3.05-1.11c-4.21-1.25-8.16-3.05-11.76-5.56c-1.52-1.06-2.81-2.38-4.03-3.76     c-1.9-2.17-3.45-4.58-4.84-7.1c-1.43-2.61-2.92-5.19-4.62-7.64c-0.35-0.51-0.69-1.04-1.15-1.47c-0.17-0.15-0.36-0.33-0.17-0.54     c0.24-0.27,0.44-0.02,0.6,0.14c0.19,0.19,0.37,0.4,0.52,0.62c1.07,1.65,2.45,3.03,3.76,4.46c0.97,1.06,1.99,2.07,3.06,3.03     c2.36,2.11,4.78,4.15,7.49,5.82c1.75,1.08,3.52,2.14,5.21,3.3c1.31,0.9,2.63,1.79,3.86,2.81c1.31,1.09,2.66,2.13,3.9,3.31     c0.6,0.57,1.2,1.16,1.79,1.74c0.25-0.15,0.1-0.32,0.07-0.45c-0.59-2.59-1.03-5.21-1.83-7.74c-0.52-1.62-1.09-3.23-1.68-4.83     c-0.73-1.95-1.44-3.91-2.27-5.82c-0.94-2.19-1.98-4.33-3-6.48c-0.64-1.34-1.28-2.69-2.02-3.99c-1.23-2.17-2.12-4.5-3.31-6.69     c-0.12-0.23-0.2-0.5-0.46-0.66c-0.16,0.26-0.11,0.53-0.13,0.79c-0.03,0.38-0.11,0.75-0.31,1.09c-0.5,0.87-1.37,1.1-2.3,0.6     c-0.75-0.4-0.79-0.43-1.28,0.37c-0.53,0.87-1.28,1.37-2.21,1.68c-0.9,0.3-1.71,0.17-2.42-0.47c-0.55-0.5-0.9-1.14-1.17-1.92     c-0.4,0.36-0.8,0.61-1.26,0.76c-1.01,0.32-1.67,0.14-2.29-0.75c-0.15-0.22-0.31-0.26-0.54-0.23c-0.8,0.09-1.45-0.12-1.84-0.88     c-0.1-0.2-0.26-0.25-0.46-0.26c-1.43-0.03-2.39-1.85-1.9-3.24c0.19-0.54,0.48-1.02,0.84-1.56c-0.37-0.02-0.63,0.09-0.9,0.17     c-0.45,0.13-0.91,0.16-1.36,0.05c-1.04-0.24-1.56-1.1-1.31-2.15c0.04-0.16,0.07-0.32,0.13-0.47c0.12-0.29,0.04-0.47-0.25-0.56     c-0.53-0.16-0.92-0.56-1.38-0.84c-0.31-0.19-0.53-0.47-0.7-0.78c-0.27-0.5-0.28-0.99,0.12-1.43c0.32-0.34,0.64-0.66,0.53-1.2     c-0.02-0.09,0.04-0.23,0.11-0.29c0.55-0.47,0.22-0.8-0.13-1.19c-0.46-0.52-0.7-1.14-0.69-1.86c0.01-0.42,0.14-0.74,0.51-0.94     c0.34-0.19,0.61-0.45,0.86-0.73c0.19-0.21,0.3-0.44,0.24-0.74c-0.17-0.86,0.24-1.46,0.89-1.94c0.55-0.41,0.55-0.41,0.3-1.09     c-0.36-0.98-0.04-1.94,0.84-2.46c0.24-0.14,0.53-0.13,0.79-0.09c0.43,0.06,0.81,0.06,1.04-0.39c0.07-0.15,0.25-0.19,0.41-0.24     c0.63-0.22,0.64-0.22,0.53-0.83c-0.06-0.33-0.02-0.64,0.11-0.95c0.3-0.74,0.92-1.05,1.7-0.83c0.58,0.16,0.6,0.17,0.73-0.4     c0.08-0.36,0.24-0.66,0.5-0.91c0.51-0.48,1.23-0.53,1.77-0.07c0.45,0.38,0.88,0.8,1.21,1.31c0.19,0.29,0.37,0.6,0.74,0.81     c-0.05-0.5-0.08-0.96-0.15-1.42c-0.13-0.84,0.08-1.61,0.41-2.36c0.46-1.03,1.45-1.37,2.49-0.88c0.3-0.13,0.24-0.46,0.37-0.68     c0.35-0.57,0.7-0.74,1.36-0.56c0.63,0.17,1.28,0.3,1.63,0.94c0.13,0.23,0.34,0.23,0.57,0.14c0.2-0.08,0.4-0.16,0.61-0.23     c0.84-0.28,1.57,0.07,1.88,0.9c0.12,0.33,0.22,0.66,0.2,1.03c-0.02,0.35,0,0.7,0,1.05c0.27,0.09,0.36-0.1,0.49-0.22     c0.3-0.29,0.65-0.49,1.03-0.64c0.72-0.29,1.36,0.01,1.62,0.74c0.04,0.1,0.08,0.21,0.09,0.31c0.06,0.5,0.26,0.77,0.83,0.75     c0.38-0.02,0.73,0.2,1,0.49c0.2,0.21,0.4,0.27,0.72,0.22c1.11-0.18,1.84,0.46,1.92,1.63c0.02,0.34-0.21,0.74,0.07,1.01     c0.26,0.25,0.67,0.13,1.02,0.18c0.82,0.12,1.39,0.53,1.69,1.33c0.16,0.43,0.03,0.79-0.12,1.17c-0.18,0.47-0.25,0.82,0.24,1.25     c0.96,0.85,0.94,1.8,0.1,2.79c-0.16,0.18-0.33,0.36-0.51,0.56c0.26,0.35,0.61,0.61,0.86,0.96c0.58,0.81,0.56,1.75-0.17,2.4     c-0.32,0.28-0.41,0.52-0.23,0.89c0.17,0.35,0.14,0.74,0.16,1.12c0.01,0.22,0.01,0.48-0.17,0.6c-0.49,0.33-0.4,0.69-0.23,1.16     c0.32,0.9,0.06,1.56-0.76,2.07c-0.33,0.2-0.52,0.4-0.5,0.82c0.03,0.61-0.37,1.01-0.87,1.27c-0.33,0.17-0.51,0.34-0.49,0.73     c0.05,1.05-0.49,1.73-1.43,2.13c-0.25,0.1-0.45,0.19-0.52,0.54c-0.21,1.06-1.51,1.95-2.6,0.96c-0.1-0.09-0.21-0.16-0.4-0.09     c-0.06,0.35,0.11,0.67,0.25,0.98c0.28,0.65,0.58,1.28,0.96,1.88c0.61,0.96,1.03,2.02,1.55,3.04c0.74,1.44,1.51,2.88,2.22,4.33     c0.83,1.7,1.85,3.3,2.59,5.04c0.08,0.19,0.21,0.37,0.36,0.61c0-0.73,0.02-1.38,0-2.02c-0.06-2.18,0.35-4.25,1.27-6.22     c0.97-2.06,2.11-4.02,3.4-5.9c0.78-1.14,1.49-2.32,2.2-3.51c0.38-0.63,0.88-1.17,1.19-1.84c0.06-0.13,0.17-0.23,0.32-0.15     c0.14,0.06,0.17,0.21,0.16,0.35c-0.04,0.73-0.01,1.48-0.16,2.18c-0.62,3.04-1.05,6.14-2.16,9.07c-0.42,1.12-0.99,2.16-1.53,3.22     c-0.83,1.61-1.72,3.19-2.4,4.88c-0.35,0.86-0.55,1.75-0.64,2.67c-0.07,0.76,0.02,1.48,0.32,2.22c0.94,2.33,1.74,4.72,2.35,7.16     c0.42,1.68,0.64,3.41,1.06,5.08c0.31,1.24,0.27,2.52,0.6,3.75c0.06,0.22,0.03,0.48,0.34,0.69c0.15-1.12,0.67-2.09,0.92-3.13     c1.04-4.25,2.43-8.36,4.7-12.13c0.48-0.79,0.8-1.66,1.15-2.51c0.74-1.83,1.64-3.59,2.3-5.46c0.42-1.18,0.39-2.32-0.1-3.4     c-0.56-1.22-0.68-2.5-0.76-3.8c-0.12-1.81,0.2-3.55,0.8-5.26c0.32-0.92,0.52-1.88,0.98-2.75c0.21-0.4,0.46-0.75,0.87-0.93     c0.43-0.18,0.68-0.51,0.93-0.87c0.31-0.45,0.7-0.83,1.13-1.16c0.11-0.08,0.23-0.23,0.33-0.21c0.66,0.09,0.94-0.38,1.28-0.79     c0.21-0.25,0.51-0.48,0.82-0.49c0.58-0.01,0.94-0.37,1.31-0.7c0.22-0.2,0.47-0.37,0.74-0.49c0.37-0.16,0.74-0.22,1.01,0.19     c0.15,0.24,0.39,0.25,0.63,0.31c0.55,0.13,0.91,0.46,0.96,1.06c0.02,0.27,0.06,0.51,0.3,0.72c1.03,0.85,1.1,2,0.9,3.19     c-0.19,1.18-0.57,2.3-1.22,3.32c-0.22,0.34-0.29,0.77-0.28,1.17c0.07,1.53-0.54,2.84-1.42,3.98c-0.95,1.24-1.82,2.55-2.94,3.67     c-0.77,0.77-1.58,1.49-2.44,2.13c-1.12,0.82-1.92,1.89-2.67,3.02c-1.49,2.26-2.67,4.7-3.81,7.15c-0.82,1.76-1.69,3.5-2.42,5.31     c-0.06,0.15-0.12,0.3-0.17,0.43c0.05,0.08,0.1,0.09,0.14,0.04c0.69-1.06,1.77-1.38,2.94-1.46c2.48-0.18,4.52-1.34,6.43-2.82     c0.06-0.05,0.12-0.11,0.19-0.16c0.19-0.13,0.37-0.44,0.61-0.29c0.28,0.17,0.13,0.49,0.01,0.73c-0.65,1.32-1.39,2.56-2.67,3.4     c-0.86,0.56-1.83,0.79-2.79,1.04c-1.07,0.28-2.18,0.44-3.16,0.97c-1.66,0.91-2.99,2.12-3.47,4.06c-0.3,1.21-0.59,2.42-0.8,3.65     c-0.04,0.21-0.06,0.44-0.15,0.63c-0.45,1.06-0.23,2.12-0.05,3.19c0.27,1.55,0.5,3.1,0.73,4.65c0.33,2.22,0.55,4.46,0.97,6.67     c0.28,1.49,0.46,2.99,0.83,4.47c0.18,0.73-0.51,1.49-1.26,1.44c-0.32-0.02-0.56-0.2-0.61-0.55c-0.04-0.32-0.08-0.64-0.11-0.97     c-0.18-2.24-0.3-4.48-0.56-6.72c-0.24-2.07-0.67-4.11-1.18-6.14c-0.02-0.07-0.09-0.12-0.17-0.21c-0.24,0.48-0.26,0.98-0.31,1.44     c-0.12,1.27-0.4,2.51-0.6,3.77c-0.44,2.82-0.57,5.65-0.45,8.5c0.03,0.57,0.05,1.14,0.02,1.7c-0.04,0.71-0.32,0.97-0.87,0.9     c-0.54-0.07-0.97-0.6-0.9-1.13c0.14-0.99,0.26-1.99,0.42-2.97c0.22-1.31,0.18-2.65,0.26-3.97c0.07-1.27-0.37-2.44-1.46-3.28     c-0.79-0.61-1.55-1.27-2.3-1.93c-1.15-1-1.92-2.25-2.44-3.68c-0.48-1.34-0.72-2.72-0.84-4.12c0-0.05-0.02-0.11-0.02-0.16     c0.01-0.37-0.12-0.93,0.23-1.03c0.46-0.12,0.47,0.47,0.62,0.79c0.22,0.47,0.48,0.93,0.85,1.28c0.94,0.89,1.73,1.93,2.64,2.86     c1.24,1.26,2.04,2.78,2.65,4.42C56.53,83.51,56.7,83.9,56.87,84.29z M72.18,35.59c-0.12-0.28-0.01-0.64-0.35-0.73     c-0.52-0.13-0.8-0.52-1.09-0.91c-0.23-0.32-0.51-0.31-0.85-0.09c-0.32,0.21-0.48,0.52-0.61,0.84c-0.54,1.39-1.04,2.8-1.36,4.25     c-0.54,2.41-0.39,4.78,0.6,7.08c0.41,0.95,0.53,1.94,0.21,2.93c-0.24,0.77-0.55,1.53-0.86,2.27c-0.65,1.55-1.32,3.08-1.97,4.63     c-0.28,0.68-0.59,1.34-0.97,1.96c-1.33,2.18-2.33,4.51-3.19,6.91c-0.35,0.99-0.56,2.02-0.84,3.04c-0.22,0.78-0.4,1.57-0.68,2.33     c-0.68,1.84-1.11,3.74-1.38,5.67c-0.39,2.87-0.94,5.71-1.44,8.56c-0.35,2-0.73,3.99-0.7,6.04c0.01,0.62-0.02,1.24-0.12,1.86     c-0.14,0.85-0.23,1.72-0.33,2.58c-0.05,0.47,0.16,0.81,0.48,0.78c0.43-0.03,0.4-0.37,0.4-0.67c0-0.38,0.02-0.76-0.03-1.14     c-0.08-0.59-0.08-1.19-0.08-1.78c-0.04-2.69,0.35-5.34,0.72-8c0.45-3.17,1.08-6.29,1.84-9.39c0.45-1.84,0.98-3.66,1.36-5.51     c0.31-1.47,0.75-2.88,1.31-4.26c0.75-1.86,1.61-3.66,2.45-5.48c1.25-2.73,2.54-5.44,4.08-8.03c0.92-1.54,2-2.96,3.55-3.95     c0.71-0.45,1.29-1.06,1.89-1.66c1.14-1.14,2.02-2.47,3-3.73c0.35-0.45,0.59-0.97,0.85-1.48c0.43-0.85,0.4-1.73,0.21-2.62     c-0.11-0.5-0.59-0.81-1.09-0.66c-0.73,0.22-1.17-0.15-1.53-0.67c-0.14-0.2-0.29-0.2-0.47-0.23c-0.4-0.07-0.88-0.11-1.07-0.49     c-0.31-0.59-0.73-0.54-1.24-0.41C72.66,35.5,72.45,35.53,72.18,35.59z M30.46,51.09c0-0.06-0.02-0.01,0,0.03     c1.52,2.71,2.95,5.47,4.63,8.09c2.55,3.97,5.78,7.16,9.99,9.38c2.33,1.23,4.72,2.27,7.2,3.14c1.33,0.46,2.7,0.77,4,1.34     c0.41,0.18,0.79,0.46,1.33,0.52c-0.01-0.45-0.05-0.83-0.37-1.14c-0.94-0.89-1.77-1.9-2.76-2.74c-3.18-2.71-6.5-5.22-10.09-7.35     c-1.86-1.11-3.7-2.26-5.39-3.61c-2.22-1.77-4.41-3.58-6.38-5.64C31.92,52.38,31.14,51.73,30.46,51.09z M60.68,32.67     c-0.31,0.36-0.53,0.64-0.72,0.96c-1.01,1.69-2.09,3.34-3.15,5c-0.76,1.19-1.38,2.44-2.03,3.68c-0.74,1.42-1.1,2.97-1.38,4.55     c-0.31,1.8-0.11,3.56,0.12,5.33c0.06,0.45,0.2,0.89,0.49,1.35c0.07-0.21,0.13-0.33,0.14-0.46c0.11-1.06,0.48-2.05,0.94-3     c0.69-1.41,1.42-2.8,2.13-4.19c0.8-1.57,1.55-3.15,2.02-4.85c0.56-2.03,0.88-4.12,1.37-6.17C60.78,34.2,60.88,33.49,60.68,32.67z      M58.46,74.98c0.35-0.69,0.33-1.36,0.15-2.1c-0.53-2.24-0.69-4.54-1.15-6.8c-0.46-2.23-0.96-4.44-1.73-6.59     c-0.59-1.66-1.29-3.26-1.95-4.89c-0.32-0.8-0.56-1.64-0.91-2.43c-1.15-2.62-2.62-5.08-3.88-7.64c-0.37-0.75-0.79-1.48-1.19-2.22     c-0.82-1.49-1.46-3.08-2.33-4.55c-0.37-0.62-0.83-1.26-0.92-1.97c-0.14-1.19-0.66-2.14-1.43-3.01c-0.32-0.36-0.55-0.8-0.83-1.2     c-0.09-0.13-0.12-0.32-0.4-0.32c0.06,0.57,0.34,1.08,0.37,1.64c0.03,0.46,0.18,0.9,0.42,1.3c0.96,1.57,1.7,3.26,2.46,4.93     c0.66,1.45,1.46,2.83,2.19,4.25c0.62,1.2,1.24,2.4,1.83,3.61c0.42,0.88,0.74,1.81,1.2,2.66c0.98,1.79,1.58,3.73,2.39,5.59     c0.54,1.23,0.88,2.56,1.4,3.8c1.17,2.84,2.04,5.76,2.65,8.76c0.35,1.7,0.77,3.38,1.09,5.08C58.04,73.6,58.25,74.28,58.46,74.98z      M23.71,16.09c-0.05,0.01-0.3,0.02-0.54,0.07c-0.85,0.15-1.49,0.78-1.58,1.53c-0.08,0.7,0.37,1.44,1.13,1.8     c0.41,0.2,0.84,0.38,1.27,0.53c2.71,0.95,5.33,2.09,7.77,3.62c0.3,0.19,0.63,0.32,0.98,0.37c0.63,0.1,0.89-0.08,1.04-0.71     c0.05-0.21,0.08-0.43,0.13-0.64c0.21-0.82,0.18-0.84-0.55-1.03c-1.27-0.33-2.28-1.12-3.28-1.89c-1.16-0.88-2.32-1.76-3.52-2.6     C25.77,16.6,24.93,16.09,23.71,16.09z M42.08,35.15c-0.18-1.32-0.2-2.67-0.63-3.96c-0.62-1.87-1.31-3.71-2.31-5.42     c-0.21-0.36-0.39-0.4-0.68-0.13c-0.2,0.18-0.45,0.27-0.72,0.33c-0.69,0.15-0.78,0.26-0.74,1.01c0.05,1.08,0.08,2.17,0.25,3.23     c0.35,2.11,0.97,4.14,1.89,6.08c0.26,0.56,0.73,0.83,1.29,1.03c0.41,0.14,0.73,0.02,1.05-0.24     C42.08,36.55,42.17,35.88,42.08,35.15z M49.28,11.65c0-0.16,0.01-0.33,0-0.49c-0.04-0.49-0.24-0.91-0.69-1.12     c-0.47-0.23-0.89-0.07-1.28,0.25c-0.38,0.31-0.74,0.64-1.08,0.98c-0.95,0.94-1.59,2.11-2.35,3.19c-0.81,1.15-1.56,2.35-2.46,3.43     c-0.65,0.77-1,1.66-1.35,2.57c-0.06,0.16-0.1,0.31,0.04,0.45c0.18,0.18,0.34,0.05,0.51-0.03c0.6-0.27,1.09-0.7,1.65-1.03     c1.74-1.04,3.39-2.23,4.89-3.59C48.48,15.03,49.21,13.47,49.28,11.65z M37.97,19.05c0-0.98-0.17-1.94-0.27-2.91     c-0.21-2.05-0.71-4.05-1.11-6.07c-0.23-1.19-0.37-2.41-0.9-3.53c-0.25-0.53-0.61-0.9-1.2-0.96C34,5.52,33.58,5.9,33.31,6.53     c-0.43,0.99-0.41,2.01-0.11,3.02c0.42,1.42,0.86,2.85,1.33,4.26c0.6,1.79,1.36,3.53,1.89,5.35c0.07,0.26,0.2,0.5,0.31,0.75     c0.17,0.37,0.43,0.47,0.86,0.39c0.41-0.08,0.41-0.36,0.38-0.68C37.96,19.43,37.97,19.24,37.97,19.05z M28.81,9.33     c0,0.1-0.01,0.15,0,0.2c0.41,1.63,0.77,3.27,1.75,4.69c0.97,1.4,2.01,2.75,2.92,4.2c0.42,0.66,0.95,1.25,1.43,1.86     c0.1,0.13,0.24,0.22,0.35,0.34c0.31,0.35,0.61,0.06,0.89-0.03c0.27-0.09,0.16-0.36,0.1-0.57c-0.38-1.27-0.74-2.56-1.31-3.75     c-0.34-0.71-0.66-1.43-0.84-2.19c-0.48-2.06-1.64-3.75-2.98-5.34c-0.19-0.23-0.42-0.42-0.67-0.58c-0.48-0.3-1.04-0.18-1.35,0.29     C28.93,8.74,28.84,9.05,28.81,9.33z M40.64,21.47c0.22,0.12,0.41,0.05,0.59,0.01c0.94-0.22,1.89-0.25,2.83-0.12     c1.51,0.2,2.96,0.05,4.4-0.41c1.33-0.43,2.54-1.07,3.65-1.9c0.66-0.49,0.99-1.32,0.72-1.92c-0.39-0.87-0.8-1.24-1.81-1.18     c-0.46,0.03-0.92,0.05-1.36,0.19c-1.29,0.42-2.54,0.94-3.7,1.64c-1.69,1.02-3.23,2.28-4.96,3.23     C40.84,21.1,40.64,21.18,40.64,21.47z M34.3,25.51c-0.7,0.2-1.12,0.73-1.65,1.09c-1.68,1.14-3.41,2.19-5.16,3.21     c-1.21,0.71-2.08,1.71-2.54,3.05c-0.27,0.8,0.07,1.78,0.72,2.24c0.6,0.42,1.51,0.38,2.17-0.15c1.39-1.13,2.49-2.53,3.43-4.05     c0.91-1.47,1.71-3,2.68-4.43C34.14,26.21,34.41,25.97,34.3,25.51z M37.83,12.04c0.05,1-0.08,2.14,0.17,3.26     c0.22,1.01,0.27,2.03,0.34,3.06c0.03,0.43,0.12,0.86,0.17,1.29c0.04,0.29,0.19,0.45,0.48,0.43c0.26-0.02,0.24-0.25,0.25-0.44     c0.01-0.08,0-0.16,0.01-0.24c0.14-1.05,0.1-2.1,0.28-3.15c0.25-1.44,0.6-2.86,1.12-4.23c0.19-0.49,0.11-1.03,0.32-1.49     c0.48-1.01,0.56-2.08,0.59-3.17c0.01-0.4,0.01-0.82-0.11-1.21c-0.24-0.82-0.86-1.07-1.63-0.73c-0.8,0.35-1.12,1.05-1.44,1.77     C37.71,8.71,37.79,10.31,37.83,12.04z M39.78,19.9c0.39-0.77,0.82-1.44,1.29-2.09c0.82-1.14,1.69-2.25,2.41-3.45     c0.76-1.26,1.35-2.59,1.47-4.08c0.06-0.76,0.02-1.52-0.21-2.25c-0.2-0.63-0.6-0.76-1.19-0.48c-0.94,0.43-1.43,1.22-1.73,2.14     c-0.75,2.34-1.63,4.64-1.97,7.09C39.76,17.35,39.67,19.38,39.78,19.9z M30.79,37.7c0.61-0.01,1.16-0.3,1.51-0.81     c0.28-0.4,0.5-0.84,0.68-1.29c1.03-2.48,1.76-5.05,2.33-7.67c0.1-0.48,0.24-0.95,0.32-1.42c0.08-0.43-0.28-0.72-0.69-0.6     c-0.21,0.06-0.27,0.25-0.37,0.41c-1.52,2.24-2.85,4.6-4,7.04c-0.42,0.88-0.72,1.81-0.93,2.76C29.44,36.99,29.98,37.71,30.79,37.7     z M25.97,12.26c-0.51-0.01-0.77,0.22-0.77,0.86c0,0.29,0.04,0.61,0.18,0.87c0.4,0.76,0.79,1.53,1.43,2.14     c1.08,1.02,2.19,2.02,3.4,2.89c0.83,0.6,1.69,1.17,2.59,1.68c0.5,0.28,1.04,0.45,1.59,0.61c0.14,0.04,0.28,0.04,0.37-0.08     c0.11-0.14-0.01-0.23-0.09-0.34c-1.35-1.72-2.59-3.52-3.87-5.3c-0.73-1.02-1.54-1.97-2.65-2.59     C27.51,12.65,26.87,12.25,25.97,12.26z M46.09,35.11c0.88,0.02,1.47-0.73,1.29-1.51c-0.1-0.42-0.18-0.86-0.42-1.22     c-0.62-0.92-1.21-1.88-1.94-2.7c-1.03-1.15-2.06-2.3-3.11-3.43c-0.46-0.5-0.92-0.99-1.47-1.39c-0.21-0.15-0.36-0.17-0.57-0.01     c-0.42,0.33-0.46,0.37-0.19,0.86c0.82,1.52,1.51,3.12,2.3,4.66c0.81,1.57,1.88,2.91,3.09,4.15     C45.36,34.83,45.73,35.07,46.09,35.11z M42.95,21.54c-0.41,0.06-0.98,0.12-1.53,0.24c-0.27,0.06-0.61,0.1-0.63,0.51     c-0.02,0.43,0.26,0.54,0.6,0.63c0.6,0.17,1.2,0.33,1.79,0.53c2.02,0.7,3.99,1.53,6.1,1.93c0.85,0.16,1.71,0.59,2.53-0.08     c0.47,0.07,0.53-0.29,0.58-0.61c0.12-0.74-0.27-1.26-0.82-1.65c-1.39-0.98-2.98-1.42-4.66-1.35c-1.08,0.04-2.16,0.16-3.23-0.12     C43.49,21.53,43.29,21.55,42.95,21.54z M33.28,24.67c-1.27,0.15-2.39-0.27-3.5-0.7c-1.13-0.45-2.26-0.88-3.41-1.27     c-1.56-0.53-3.07-0.55-4.55,0.26c-0.42,0.23-1,0.34-1.04,0.91c-0.04,0.61,0.48,0.95,0.94,1.23c1.04,0.64,2.2,0.98,3.4,0.9     c1.41-0.1,2.81-0.04,4.21-0.07C30.76,25.89,32.04,25.35,33.28,24.67z M49.08,30.49c0.26-0.01,0.42-0.01,0.58-0.03     c0.88-0.14,1.25-0.78,0.92-1.61c-0.15-0.38-0.41-0.7-0.73-0.96c-0.81-0.64-1.67-1.2-2.61-1.63c-2.01-0.92-4.13-1.61-6.09-2.66     c-0.34-0.18-0.47-0.06-0.58,0.26c-0.11,0.31,0.05,0.47,0.25,0.6c0.64,0.42,1.11,1.02,1.62,1.58c1.05,1.13,2.06,2.29,3.36,3.16     C46.83,29.9,47.95,30.33,49.08,30.49z M33.43,25.37c-0.2,0.06-0.4,0.11-0.59,0.17c-0.54,0.18-1.06,0.41-1.61,0.54     c-1.22,0.28-2.45,0.33-3.7,0.28c-0.86-0.04-1.75-0.04-2.57,0.23c-1.2,0.41-2.31,0.97-2.67,2.36c-0.14,0.55-0.16,1.11,0.27,1.52     c0.43,0.4,0.95,0.54,1.57,0.36c0.73-0.21,1.42-0.5,2.12-0.79c1.33-0.56,2.49-1.42,3.72-2.14C31.19,27.18,32.36,26.36,33.43,25.37     z M34.75,34.24c-0.05,0.5,0.03,1.36,0.2,2.21c0.17,0.86,0.66,1.36,1.34,1.42c0.58,0.05,1.16-0.43,1.43-1.22     c0.31-0.89,0.34-1.8,0.08-2.71c-0.65-2.27-1.06-4.57-1.13-6.93c-0.01-0.19-0.02-0.38-0.08-0.56c-0.08-0.23-0.39-0.25-0.51-0.04     c-0.07,0.11-0.1,0.25-0.13,0.38C35.25,29.1,34.85,31.46,34.75,34.24z M56.65,86.41c0.17-0.59,0.18-0.99,0.03-1.38     c-0.32-0.89-0.58-1.8-0.97-2.67c-0.37-0.83-0.75-1.67-1.35-2.39c-0.73-0.87-1.48-1.73-2.28-2.53c-0.71-0.71-1.39-1.44-1.93-2.29     c-0.07-0.12-0.09-0.33-0.37-0.26c0.1,1.4,0.3,2.78,0.79,4.11c0.38,1.03,0.85,2,1.63,2.77c0.85,0.84,1.73,1.64,2.66,2.39     C55.59,84.76,56.26,85.36,56.65,86.41z M31.47,24.1c0.03-0.11-0.06-0.15-0.13-0.19c-1.79-1.13-3.66-2.09-5.65-2.81     c-1.17-0.43-2.37-0.78-3.45-1.42c-0.3-0.18-0.5-0.57-0.87-0.56c-0.36,0.02-0.52,0.44-0.83,0.61c-0.55,0.31-0.6,0.77-0.44,1.33     c0.1,0.34,0.26,0.65,0.45,0.95c0.44,0.67,0.59,0.75,1.33,0.42c1.64-0.73,3.28-0.63,4.89,0.04c1.4,0.58,2.86,0.99,4.25,1.59     C31.16,24.11,31.31,24.23,31.47,24.1z M62.46,66.59c0.22-0.15,0.46-0.28,0.66-0.46c0.86-0.79,1.88-1.24,3-1.52     c1.05-0.26,2.1-0.52,3.12-0.85c1.61-0.52,2.58-1.73,3.27-3.21c-0.67,0.41-1.34,0.79-2.01,1.17c-1.39,0.79-2.82,1.44-4.48,1.45     c-0.68,0-1.36,0.18-1.89,0.63C63.28,64.52,62.73,65.47,62.46,66.59z M59.61,76.61c-0.44,1.2-0.57,1.94-0.4,2.47     c0.45,1.42,0.63,2.9,0.92,4.35c0.44,2.28,0.6,4.6,0.79,6.92c0.08,0.99,0.2,1.99,0.34,2.97c0.07,0.52,0.36,0.61,0.78,0.29     c0.25-0.18,0.31-0.4,0.24-0.71c-0.52-2.13-0.73-4.31-1.08-6.47c-0.37-2.24-0.64-4.49-0.98-6.73     C60.06,78.73,59.95,77.74,59.61,76.61z M36.61,25.18c1.1,0.13,1.69-0.34,2.32-0.68c0.52-0.27,0.95-0.61,0.99-1.27     c0.01-0.1,0.08-0.2,0.14-0.29c0.27-0.41,0.19-0.83-0.01-1.23c-0.41-0.85-1.24-1.24-2.17-1.05c-0.13,0.03-0.27,0.04-0.4,0.04     c-0.65-0.04-1.18,0.31-1.73,0.57c-1.29,0.62-1.82,1.58-1.36,3.02c0.11,0.33,0.24,0.54,0.55,0.6     C35.61,25.02,36.27,25.12,36.61,25.18z M47.51,16.44c0.2,0.11,0.32,0.02,0.44-0.03c1.07-0.36,2.1-0.85,3.27-0.85     c0.26,0,0.48-0.14,0.61-0.35c0.67-1.12,0.49-2.06-0.83-2.44c-0.28-0.08-0.59-0.06-0.88-0.08c-0.41-0.03-0.66,0.16-0.76,0.56     c-0.13,0.5-0.35,0.95-0.6,1.41C48.4,15.31,47.94,15.86,47.51,16.44z M38.45,35.88c-0.32,0.49-0.27,1.01-0.51,1.44     c-0.62,1.12-1.71,1.38-2.63,0.6c-0.3-0.25-0.49-0.6-0.57-0.96c-0.16-0.74-0.36-1.47-0.32-2.24c0.01-0.3-0.02-0.6-0.04-0.9     c-0.45,0.79-0.77,1.59-1.11,2.38c-0.1,0.24-0.09,0.46-0.07,0.71c0.07,0.85,0.56,1.45,1.17,1.96c0.51,0.43,1.09,0.54,1.74,0.34     c1-0.3,1.75-0.9,2.33-1.77C38.94,36.7,38.99,36.72,38.45,35.88z M76.95,31.9c0-0.19,0.02-0.38,0-0.57     c-0.04-0.31-0.45-0.8-0.7-0.82c-0.36-0.03-0.49,0.28-0.67,0.51c-0.14,0.18-0.23,0.37-0.26,0.59c-0.18,1.13-0.47,2.22-0.85,3.29     c-0.2,0.56-0.11,0.69,0.37,0.88c0.67,0.26,1.03,0.19,1.23-0.28C76.55,34.35,76.91,33.17,76.95,31.9z M42.19,23.68     c0.13,0.1,0.18,0.16,0.25,0.2c1.24,0.66,2.6,1.07,3.89,1.6c1.64,0.67,3.22,1.42,4.42,2.77c0.28,0.31,0.55,0.27,0.85,0.04     c0.55-0.43,0.73-1.1,0.47-1.82c-0.1-0.3-0.25-0.48-0.59-0.38c-0.32,0.09-0.64,0.05-0.97,0.01c-1.13-0.14-2.2-0.52-3.3-0.79     c-1.41-0.35-2.75-0.94-4.12-1.44C42.84,23.77,42.6,23.63,42.19,23.68z M37.43,11.22c-0.07-2.01,0.24-3.79,1.2-5.42     c0.12-0.21,0.03-0.34-0.06-0.51c-0.33-0.6-0.93-0.71-1.51-0.83c-0.5-0.1-0.71,0.07-0.92,0.57c-0.18,0.44-0.22,0.86-0.04,1.32     c0.45,1.13,0.75,2.31,0.95,3.51C37.13,10.26,37.13,10.71,37.43,11.22z M78.86,33.19c-0.01-0.1-0.03-0.29-0.05-0.48     c-0.03-0.21-0.01-0.46-0.28-0.54c-0.23-0.07-0.4,0.06-0.58,0.2c-0.46,0.36-0.79,0.77-0.92,1.37c-0.14,0.63-0.4,1.23-0.61,1.85     c-0.05,0.15-0.13,0.3-0.16,0.46c-0.11,0.57,0.2,0.87,0.77,0.76c0.21-0.04,0.42-0.12,0.64-0.12c0.31,0,0.46-0.17,0.53-0.41     C78.49,35.29,78.86,34.33,78.86,33.19z M26.7,16.68c-1.19-1.35-1.34-1.6-1.92-3.33c-0.1-0.3-0.25-0.44-0.56-0.48     c-0.66-0.09-1.51,0.54-1.66,1.23c-0.11,0.5,0.16,0.88,0.37,1.28c0.19,0.36,0.51,0.22,0.78,0.26c0.77,0.13,1.54,0.24,2.23,0.66     C26.18,16.45,26.45,16.56,26.7,16.68z M48.8,21.37c1.18,0.23,2.16,0.72,3.09,1.31c0.22,0.14,0.4,0.08,0.59-0.07     c0.49-0.39,0.73-0.91,0.56-1.5c-0.16-0.58-0.61-1-1.17-1.26c-0.19-0.09-0.36,0.04-0.53,0.13c-0.36,0.19-0.71,0.38-1.07,0.57     C49.8,20.78,49.29,20.93,48.8,21.37z M29.66,13.53c-0.5-1.07-0.78-2.19-1.14-3.29c-0.13-0.39-0.94-0.68-1.39-0.55     c-0.46,0.12-0.87,0.7-0.77,1.19c0.09,0.46,0.27,0.94,0.71,1.13C27.99,12.4,28.76,13.02,29.66,13.53z M45.74,29.71     c-0.01,0.09-0.03,0.15-0.01,0.19c0.65,1.08,1.6,1.98,1.98,3.23c0.06,0.19,0.23,0.23,0.4,0.17c0.69-0.22,1.19-0.64,1.37-1.36     c0.15-0.57-0.02-0.84-0.6-1c-0.83-0.23-1.67-0.44-2.43-0.87C46.21,29.94,46.01,29.75,45.74,29.71z M24.04,26.42     c-0.18-0.08-0.25-0.13-0.32-0.15c-1.01-0.23-1.97-0.57-2.8-1.22c-0.27-0.21-0.48-0.14-0.7,0.08c-0.42,0.42-0.49,0.74-0.17,1.22     c0.42,0.63,1.09,0.95,1.74,1.28c0.22,0.11,0.48,0.08,0.7-0.07C22.98,27.2,23.47,26.83,24.04,26.42z M74.87,31.23     c0.01-0.64-0.01-0.73-0.13-0.96c-0.09-0.18-0.21-0.22-0.39-0.14c-0.45,0.18-0.93,0.87-0.88,1.34c0.1,0.9-0.16,1.71-0.47,2.53     c-0.07,0.18-0.15,0.35-0.2,0.53c-0.04,0.14-0.01,0.28,0.13,0.35c0.35,0.17,1.19-0.12,1.3-0.48     C74.51,33.41,74.88,32.44,74.87,31.23z M73.1,32.22c-0.02-0.37,0.01-0.73-0.34-0.89c-0.37-0.17-0.6,0.12-0.83,0.34     c-0.38,0.35-0.67,0.77-0.92,1.22c-0.08,0.14-0.21,0.3-0.1,0.45c0.3,0.4,0.54,0.86,1.08,1.04c0.26,0.09,0.4,0.03,0.52-0.2     C72.83,33.55,72.99,32.87,73.1,32.22z M80.07,32.91c0.06-0.44-0.17-1.01-0.56-1.52c-0.09-0.12-0.21-0.28-0.4-0.15     c-0.12,0.08-0.14,0.23-0.1,0.37c0.07,0.23,0.16,0.46,0.21,0.69c0.18,0.9-0.01,1.77-0.23,2.63c-0.16,0.65-0.34,1.31-0.64,1.91     c-0.09,0.17-0.08,0.3,0.09,0.41c0.15,0.1,0.23,0.04,0.31-0.1C79.5,35.91,80.01,34.59,80.07,32.91z M29.8,33.69     c-0.7,0.7-1.45,1.3-2.21,1.89c-0.37,0.29-0.35,0.56,0.05,0.8c0.21,0.13,0.44,0.2,0.69,0.2c0.57,0.01,0.66-0.02,0.81-0.56     C29.35,35.26,29.56,34.49,29.8,33.69z M77.43,32.07c0.28-0.16,0.45-0.38,0.75-0.37c0.14,0,0.26-0.05,0.35-0.17     c0.25-0.35,0.25-1.45,0.01-1.8c-0.12-0.18-0.28-0.25-0.48-0.25c-0.23,0-0.31,0.16-0.37,0.36C77.49,30.53,77.27,31.23,77.43,32.07     z M45.18,11.71c0.65-0.62,1.21-1.15,1.76-1.69c0.14-0.14,0.12-0.29-0.03-0.42c-0.27-0.24-0.58-0.41-0.95-0.37     c-0.25,0.03-0.49,0.12-0.49,0.43C45.47,10.31,45.24,10.93,45.18,11.71z M76.99,30.44c0.31-0.41,0.33-0.8,0.29-1.17     c-0.05-0.52-0.32-0.66-0.77-0.42c-0.38,0.21-0.72,0.48-0.99,0.83c-0.19,0.23-0.36,0.48-0.12,0.87     C75.88,30.11,76.4,29.87,76.99,30.44z"></path><path d="M36.48,24.8c-1.07-0.01-1.39-0.37-1.32-1.38c0.07-0.96,0.56-1.54,1.48-1.78c0.29-0.07,0.56-0.2,0.85-0.27     c0.7-0.19,1.38,0.04,1.64,0.56c0.3,0.61,0.16,1.4-0.34,1.85C38.12,24.38,37.41,24.92,36.48,24.8z M35.81,23.36     c-0.04,0.34,0.05,0.53,0.43,0.63c1.04,0.27,2.13-0.27,2.53-1.28c0.14-0.36,0.03-0.59-0.23-0.76c-0.32-0.21-0.67-0.34-1.07-0.17     c-0.22,0.1-0.44,0.2-0.67,0.27C35.96,22.33,35.84,22.48,35.81,23.36z"></path></g></g></g></svg>